/* XPM */
static char * left_active_xpm[] = {
"1 21 3 1",
" 	c None",
".	c #1F1F1F",
"+	c #1E1E1E",
".",
".",
".",
".",
".",
".",
".",
"+",
"+",
"+",
"+",
"+",
"+",
"+",
"+",
"+",
"+",
".",
".",
"+",
"+"};
