/* XPM */
static char * menu_pressed_xpm[] = {
"24 24 12 1",
" 	c None",
".	c #0F0F0F",
"+	c #0E0E0E",
"@	c #0D0D0D",
"#	c #0C0C0C",
"$	c #0B0B0B",
"%	c #0A0A0A",
"&	c #090909",
"*	c #080808",
"=	c #070707",
"-	c #060606",
";	c #050505",
".+++@@@@####$$$%%%%&&&&&",
".+++@@@####$$$%%%%&&&&&*",
"+++@@@@###$$$$%%%%&&&&**",
"+++@@@####$$$%%%%&&&&***",
"++@@@####$$$%%%%&&&&&***",
"+@@@@###$$$$%%%&&&&&****",
"+@@@####$$$%%%%&&&&****=",
"@@@@###$$$%%%%&&&&****==",
"@@@####$$$%%%&&&&&***===",
"@@@###$$$%%%%&&&&****===",
"@@####$$$%%%&&&&****====",
"@@###$$$%%%%&&&&***=====",
"@####$$$%%%&&&&****====-",
"@###$$$%%%%&&&&***====--",
"@###$$$%%%&&&&****====--",
"###$$$%%%%&&&&***====---",
"###$$$%%%&&&&****====---",
"###$$$%%%&&&&***====----",
"##$$$%%%%&&&****====----",
"##$$$%%%&&&&***====-----",
"##$$$%%%&&&&***====----;",
"##$$%%%%&&&****====----;",
"#$$$%%%%&&&***====----;;",
"#$$$%%%&&&&***====----;;"};
