/* XPM */
static char * menu_inactive_xpm[] = {
"24 16 6 1",
" 	c None",
".	c #060606",
"+	c #050505",
"@	c #040404",
"#	c #030303",
"$	c #020202",
"........++++++++++++++++",
".....+++++++++++++++@@@@",
"....++++++++++++@@@@@@@@",
"++++++++@++@@@@@@@@@@@@@",
"+++++++@@@@@@@@@@@@@@@@@",
"+++@@@@@@@@@@@@@@@@@@@@@",
"@@@@@@@@@@@@@@@@########",
"@@@@@@@@@@@@@@##########",
"@@@@@@@#@###############",
"@@@@####################",
"@@@#####################",
"###################$$$$$",
"##############$$$$$$$$$$",
"###########$$$$$$$$$$$$$",
"#######$$$$$$$$$$$$$$$$$",
"#####$$$$$$$$$$$$$$$$$$$"};
