/* XPM */
static char * menu_prelight_xpm[] = {
"24 24 5 1",
" 	c None",
".	c #030303",
"+	c #020202",
"@	c #010101",
"#	c #000000",
"....++++++++++++........",
".++++++++++++++++++.....",
"+++++++++++++++++++++...",
"+++++++++++++++++++++++.",
"++++++++++++++++++++++++",
"++++@@@@@@@@@@@@++++++++",
"+@@@@@@@@@@@@@@@@@@+++++",
"@@@@@@@@@@@@@@@@@@@@@+++",
"@@@@@@@@@@@@@@@@@@@@@@++",
"@@@@@@@@@@@@@@@@@@@@@@@+",
"@@@@@@@@@@@@@@@@@@@@@@@@",
"@@@@@@@@@@@@@@@@@@@@@@@@",
"@@@@@##########@@@@@@@@@",
"@@@##############@@@@@@@",
"@@################@@@@@@",
"@##################@@@@@",
"####################@@@@",
"####################@@@@",
"#####################@@@",
"#####################@@@",
"#####################@@@",
"#####################@@@",
"#####################@@@",
"#####################@@@"};
