/* XPM */
static char * right_inactive_xpm[] = {
"1 21 6 1",
" 	c None",
".	c #050505",
"+	c #060606",
"@	c #070707",
"#	c #080808",
"$	c #090909",
".",
".",
".",
".",
"+",
"+",
"+",
"+",
"@",
"@",
"@",
"#",
"@",
"#",
"#",
"#",
"#",
"#",
"#",
"#",
"$"};
