/* XPM */
static char * right_active_xpm[] = {
"1 21 10 1",
" 	c None",
".	c #111111",
"+	c #0F0F0F",
"@	c #0E0E0E",
"#	c #101010",
"$	c #121212",
"%	c #131313",
"&	c #141414",
"*	c #151515",
"=	c #161616",
".",
"+",
"+",
"@",
"@",
"@",
"@",
"@",
"+",
"@",
"+",
"+",
"#",
"#",
".",
".",
"$",
"%",
"&",
"*",
"="};
