/* XPM */
static char * shade_toggled_inactive_xpm[] = {
"24 24 6 1",
" 	c None",
".	c #000000",
"+	c #010101",
"@	c #030303",
"#	c #020202",
"$	c #888888",
"........................",
"........................",
"+.......................",
"+.......................",
"@.......................",
"@.......................",
"#.......................",
"+.......................",
"...........$$...........",
"...........$$...........",
"...........$$...........",
".......$$$.$$.$$$.......",
"........$$$$$$$$........",
".........$$$$$$.........",
"..........$$$$..........",
"...........$$...........",
"........................",
"........................",
"........................",
"........................",
"........................",
"........................",
"........................",
"++++##+................."};
