/* XPM */
static char * shade_toggled_prelight_xpm[] = {
"24 24 5 1",
" 	c None",
".	c #030303",
"+	c #010101",
"@	c #000000",
"#	c #D64937",
".+@@@@@@@@@@@@@@@@@@@@@@",
"+@@@@@@@@@@@@@@@@@@@@@@@",
"@@@@@@@@@@@@@@@@@@@@@@@@",
"@@@@@@@@@@@@@@@@@@@@@@@@",
"@@@@@@@@@@@@@@@@@@@@@@@@",
"@@@@@@@@@@@@@@@@@@@@@@@@",
"@@@@@@@@@@@@@@@@@@@@@@@@",
"@@@@@@@@@@@@@@@@@@@@@@@@",
"@@@@@@@@@@@##@@@@@@@@@@@",
"@@@@@@@@@@@##@@@@@@@@@@@",
"@@@@@@@@@@@##@@@@@@@@@@@",
"@@@@@@@###@##@###@@@@@@@",
"@@@@@@@@########@@@@@@@@",
"@@@@@@@@@######@@@@@@@@@",
"@@@@@@@@@@####@@@@@@@@@@",
"@@@@@@@@@@@##@@@@@@@@@@@",
"@@@@@@@@@@@@@@@@@@@@@@@@",
"@@@@@@@@@@@@@@@@@@@@@@@@",
"@@@@@@@@@@@@@@@@@@@@@@@@",
"@@@@@@@@@@@@@@@@@@@@@@@@",
"@@@@@@@@@@@@@@@@@@@@@@@@",
"@@@@@@@@@@@@@@@@@@@@@@@@",
"@@@@@@@@@@@@@@@@@@@@@@@@",
"@@@@@@@@@@@@@@@@@@@@@@@@"};
