/* XPM */
static char * stick_pressed_xpm[] = {
"24 24 6 1",
" 	c None",
".	c #030303",
"+	c #040404",
"@	c #050505",
"#	c #D64937",
"$	c #060606",
"..........++++++++++++++",
".........+++++++++++++++",
"........+++++++++++++++@",
".......++++++++++++++++@",
"......++++++++++++++++@@",
".....++++++++++++++++@@@",
"....+++++++++++++++++@@@",
"...+++++++++++++++++@@@@",
"..+++++++++##++++++@@@@@",
".++++++++######+++@@@@@@",
"+++++++++##++##++@@@@@@@",
"++++++++##++++##+@@@@@@@",
"++++++++##++++##@@@@@@@@",
"+++++++++##++##@@@@@@@@@",
"+++++++++######@@@@@@@@@",
"+++++++++++##@@@@@@@@@@@",
"++++++++++++@@@@@@@@@@@@",
"+++++++++++@@@@@@@@@@@@@",
"++++++++++@@@@@@@@@@@@@$",
"+++++++++@@@@@@@@@@@@@$$",
"+++++++@@@@@@@@@@@@@@$$$",
"++++++@@@@@@@@@@@@@@$$$$",
"+++++@@@@@@@@@@@@@@$$$$$",
"++++@@@@@@@@@@@@@@$$$$$$"};
