/* XPM */
static char * stick_toggled_inactive_xpm[] = {
"24 24 4 1",
" 	c None",
".	c #000000",
"+	c #888888",
"@	c #010101",
"........................",
"........................",
"........................",
"........................",
"........................",
"........................",
"........................",
"........................",
"...........++...........",
".........++++++.........",
".........++++++.........",
"........++++++++........",
"........++++++++........",
".........++++++.........",
".........++++++.........",
"...........++...........",
"........................",
".......................@",
".......................@",
"......................@@",
"......................@@",
".....................@@@",
"....................@@@@",
"....................@@@@"};
