/* XPM */
static char * stick_prelight_xpm[] = {
"24 24 5 1",
" 	c None",
".	c #040404",
"+	c #030303",
"@	c #D64937",
"#	c #020202",
"........................",
"........................",
"....++++++++++++++++....",
"++++++++++++++++++++++++",
"++++++++++++++++++++++++",
"++++++++++++++++++++++++",
"++++++++++++++++++++++++",
"++++++++++++++++++++++++",
"+++++++++++@@+++++++++++",
"+++++++++@@@@@@+++++++++",
"+++++++++@@++@@+++++++++",
"++++++++@@++++@@++++++++",
"++++++++@@++++@@++++++++",
"+++++++++@@++@@+++++++++",
"+++++++++@@@@@@+++++++++",
"+++++++++++@@+++++++++++",
"+######################+",
"########################",
"########################",
"########################",
"########################",
"########################",
"########################",
"########################"};
