/* XPM */
static char * stick_toggled_prelight_xpm[] = {
"24 24 5 1",
" 	c None",
".	c #000000",
"+	c #010101",
"@	c #020202",
"#	c #D64937",
".++++++++++++++++++++@@@",
".+++++++++++++++++++@@@@",
"++++++++++++++++++++@@@@",
"++++++++++++++++++++@@@@",
"++++++++++++++++++++@@@@",
"+++++++++++++++++++@@@@@",
"+++++++++++++++++++@@@@@",
"+++++++++++++++++++@@@@@",
"+++++++++++##+++++@@@@@@",
"+++++++++######+++@@@@@@",
"+++++++++######++@@@@@@@",
"++++++++########+@@@@@@@",
"++++++++########@@@@@@@@",
"+++++++++######+@@@@@@@@",
"+++++++++######@@@@@@@@@",
"+++++++++++##++@@@@@@@@@",
"++++++++++++++@@@@@@@@@@",
"+++++++++++++@@@@@@@@@@@",
"+++++++++++++@@@@@@@@@@@",
"++++++++++++@@@@@@@@@@@@",
"+++++++++++@@@@@@@@@@@@@",
"++++++++++@@@@@@@@@@@@@@",
"++++++++++@@@@@@@@@@@@@@",
"+++++++++@@@@@@@@@@@@@@@"};
